<svg version="1.2" xmlns="http://www.w3.org/2000/svg" viewBox="0 0 611 719" width="611" height="719"><defs><linearGradient id="P" gradientUnits="userSpaceOnUse"/><linearGradient id="g1" x2="1" href="#P" gradientTransform="matrix(-100.885,0,0,-100.885,341.795,282.415)"><stop stop-color="#029685"/><stop offset="1" stop-color="#62ed74"/></linearGradient><linearGradient id="g2" x2="1" href="#P" gradientTransform="matrix(-1.755,0,0,-0.085,249.815,463.985)"><stop stop-color="#029685"/><stop offset="1" stop-color="#62ed74"/></linearGradient><linearGradient id="g3" x2="1" href="#P" gradientTransform="matrix(-221.91,0,0,-221.91,331.73,453.88)"><stop stop-color="#029685"/><stop offset="1" stop-color="#62ed74"/></linearGradient><linearGradient id="g4" x2="1" href="#P" gradientTransform="matrix(-0.085,0,0,-1.755,472.965,324.83)"><stop stop-color="#029685"/><stop offset="1" stop-color="#62ed74"/></linearGradient><linearGradient id="g5" x2="1" href="#P" gradientTransform="matrix(-221.905,0,0,-221.905,573.77,352.99)"><stop stop-color="#029685"/><stop offset="1" stop-color="#62ed74"/></linearGradient><linearGradient id="g6" x2="1" href="#P" gradientTransform="matrix(-1.755,0,0,-0.085,333.56,100.845)"><stop stop-color="#029685"/><stop offset="1" stop-color="#62ed74"/></linearGradient><linearGradient id="g7" x2="1" href="#P" gradientTransform="matrix(-221.905,0,0,-221.905,471.795,110.95)"><stop stop-color="#029685"/><stop offset="1" stop-color="#62ed74"/></linearGradient><linearGradient id="g8" x2="1" href="#P" gradientTransform="matrix(-0.085,0,0,-1.755,109.825,240)"><stop stop-color="#029685"/><stop offset="1" stop-color="#62ed74"/></linearGradient><linearGradient id="g9" x2="1" href="#P" gradientTransform="matrix(-221.905,0,0,-221.905,230.84,211.84)"><stop stop-color="#029685"/><stop offset="1" stop-color="#62ed74"/></linearGradient></defs><style>.a{fill:url(#g1)}.b{fill:url(#g2)}.c{fill:url(#g3)}.d{fill:url(#g4)}.e{fill:url(#g5)}.f{fill:url(#g6)}.g{fill:url(#g7)}.h{fill:url(#g8)}.i{fill:url(#g9)}.j{fill:#231f20}.k{display:none;fill:#231f20}</style><path class="a" d="m240.9 245.3c0-7.4 6-13.3 13.4-13.3h74.1c7.4 0 13.4 5.9 13.4 13.3v74.2c0 7.4-6 13.4-13.4 13.4h-74.1c-7.4 0-13.4-6-13.4-13.4z"/><path class="b" d="m249.8 463.9q-0.9 0.1-1.7 0.1 0.8-0.1 1.7-0.1z"/><path class="c" d="m331.7 482.9v63c0 10.4-8.5 18.9-18.9 18.9h-63c-10.5 0-19-8.5-19-18.9v-63q0-0.4 0.1-0.8-0.3-1.9-0.9-3.5c-2.2-5.2-6.4-8.7-11-11.9-0.9-0.5-1.9-1-2.9-1.3-1.2-0.4-3.2-1.3-6-1.5h-81.3c-10.5 0-19-8.4-19-18.9v-83.1c0-10.5 8.5-19 19-19h83.1c10.4 0 18.9 8.5 18.9 19v81.3c0 8.9 3.1 21.1 17.3 20.8q0.8 0 1.7-0.1h63c10.4 0 18.9 8.5 18.9 19z"/><path class="d" d="m472.9 324q0.1 0.9 0.1 1.7-0.1-0.9-0.1-1.7z"/><path class="e" d="m491.8 242h63c10.5 0 19 8.5 19 19v63c0 10.4-8.5 18.9-19 18.9h-63q-0.4 0-0.8 0-1.8 0.3-3.5 0.9c-5.1 2.2-8.7 6.4-11.9 11-0.5 0.9-0.9 1.9-1.3 2.9-0.4 1.2-1.2 3.2-1.4 6v81.3c0 10.5-8.5 18.9-19 18.9h-83.1c-10.5 0-18.9-8.4-18.9-18.9v-83.1c0-10.5 8.4-19 18.9-19h81.4c8.8 0 21-3 20.8-17.2q0-0.8-0.1-1.7v-63c0-10.5 8.5-19 18.9-19z"/><path class="f" d="m331.8 100.9q0.9-0.1 1.8-0.1-0.9 0.1-1.8 0.1z"/><path class="g" d="m249.9 81.9v-62.9c0-10.5 8.5-19 19-19h62.9c10.5 0 19 8.5 19 19v62.9q0 0.4 0 0.9 0.3 1.8 0.8 3.4c2.2 5.2 6.5 8.8 11 11.9 1 0.5 1.9 1 3 1.4 1.1 0.4 3.2 1.2 6 1.4h81.2c10.5 0 19 8.5 19 19v83c0 10.5-8.5 19-19 19h-83.1c-10.4 0-18.9-8.5-18.9-19v-81.3c0-8.9-3.1-21-17.2-20.8q-0.9 0-1.8 0.1h-62.9c-10.5 0-19-8.5-19-19z"/><path class="h" d="m109.8 240.9q-0.1-0.9-0.1-1.8 0.1 0.9 0.1 1.8z"/><path class="i" d="m90.9 322.8h-63c-10.5 0-19-8.5-19-19v-62.9c0-10.5 8.5-19 19-19h63q0.4 0 0.8 0 1.8-0.3 3.5-0.8c5.1-2.2 8.7-6.5 11.9-11 0.5-1 0.9-2 1.3-3 0.4-1.1 1.2-3.2 1.4-6v-81.2c0-10.5 8.5-19 19-19h83.1c10.5 0 18.9 8.5 18.9 19v83c0 10.5-8.4 19-18.9 19h-81.3c-8.9 0-21.1 3.1-20.9 17.2q0 0.9 0.1 1.8v62.9c0 10.5-8.5 19-18.9 19z"/><g style="display:none"><g style="display:none"><path class="j" d="m85.6 700.6c0 9.4-7.6 17-17 17h-65.6v-10.9h71.7v-15h-57.7c-9.4 0-17-7.6-17-17v-2.7c0-9.4 7.6-17 17-17h65.6v10.9h-71.7v14.9h57.7c9.4 0 17 7.6 17 17.1z"/><path fill-rule="evenodd" class="j" d="m95.1 672c0-9.4 7.6-17 17-17h48.6c9.4 0 17 7.6 17 17v28.6c0 9.4-7.6 17-17 17h-48.6c-9.4 0-17-7.6-17-17zm10.9 34.7h60.8v-40.8h-60.8z"/><path fill-rule="evenodd" class="j" d="m190.5 672c0-9.4 7.6-17 17-17h48.6c9.4 0 17 7.6 17 17v28.6c0 9.4-7.6 17-17 17h-48.6c-9.4 0-17-7.6-17-17zm10.9 34.7h60.8v-40.8h-60.8z"/><path class="j" d="m368.4 717.6h-65.6c-9.4 0-17-7.6-17-17v-28.6c0-9.4 7.6-17 17-17h65.6v10.9h-71.7v40.8h71.7v10.9z"/><path class="j" d="m378 631.8h10.9v13.6h-10.9zm0 23.2h10.9v62.6h-10.9z"/><path fill-rule="evenodd" class="j" d="m484.2 717.6h-65.6c-9.4 0-17-7.6-17-17v-28.6c0-9.4 7.6-17 17-17h48.6c9.4 0 17 7.6 17 17v19.7h-71.7v15h71.7zm-71.7-36.8h60.8v-14.9h-60.8z"/><path class="j" d="m579.5 717.6h-10.9v-51.7h-60.8v51.7h-10.9v-62.6h65.6c9.4 0 17 7.6 17 17v45.6z"/></g><path fill-rule="evenodd" class="k" d="m605 649.2q1.7 0.7 2.9 1.9 1.2 1.3 1.9 2.9 0.7 1.7 0.7 3.6 0 1.9-0.7 3.6-0.7 1.6-1.9 2.8-1.2 1.3-2.9 1.9-1.6 0.7-3.6 0.7-1.9 0-3.6-0.7-1.6-0.6-2.8-1.9-1.3-1.2-2-2.8-0.6-1.7-0.6-3.6 0-1.9 0.6-3.6 0.7-1.6 2-2.9 1.2-1.2 2.8-1.9 1.7-0.7 3.6-0.7 2 0 3.6 0.7zm-6.6 1.2q-1.4 0.6-2.5 1.7-1 1-1.6 2.5-0.5 1.4-0.5 3 0 1.6 0.5 3.1 0.6 1.4 1.6 2.4 1.1 1.1 2.5 1.7 1.4 0.6 3 0.6 1.7 0 3.1-0.6 1.4-0.6 2.4-1.7 1-1 1.6-2.4 0.6-1.5 0.6-3.1 0-1.6-0.6-3-0.6-1.5-1.6-2.5-1-1.1-2.4-1.7-1.4-0.6-3.1-0.6-1.6 0-3 0.6zm-0.3 12.4v-10.4h4.1q1.7 0 2.6 0.7 0.8 0.7 0.8 2.2 0 0.6-0.2 1.2-0.2 0.5-0.6 0.8-0.4 0.4-0.8 0.6-0.5 0.2-1.1 0.3l3.2 4.6h-1.5l-3-4.6h-2.2v4.6h-1.3zm4.2-5.7q0.6-0.1 1-0.3 0.5-0.1 0.7-0.5 0.3-0.4 0.3-1 0-0.6-0.2-0.9-0.2-0.4-0.6-0.6-0.3-0.2-0.8-0.3-0.4 0-0.9 0h-2.4v3.6h1.7q0.6 0 1.2 0z"/></g></svg>