<svg version="1.2" xmlns="http://www.w3.org/2000/svg" viewBox="0 0 611 719" width="611" height="719"><defs><linearGradient id="P" gradientUnits="userSpaceOnUse"/><linearGradient id="g1" x2="1" href="#P" gradientTransform="matrix(-100.885,0,0,-100.885,342.075,282.86)"><stop stop-color="#029685"/><stop offset="1" stop-color="#62ed74"/></linearGradient><linearGradient id="g2" x2="1" href="#P" gradientTransform="matrix(-1.755,0,0,-0.085,250.095,464.43)"><stop stop-color="#029685"/><stop offset="1" stop-color="#62ed74"/></linearGradient><linearGradient id="g3" x2="1" href="#P" gradientTransform="matrix(-221.91,0,0,-221.91,332.01,454.325)"><stop stop-color="#029685"/><stop offset="1" stop-color="#62ed74"/></linearGradient><linearGradient id="g4" x2="1" href="#P" gradientTransform="matrix(-0.085,0,0,-1.755,473.245,325.275)"><stop stop-color="#029685"/><stop offset="1" stop-color="#62ed74"/></linearGradient><linearGradient id="g5" x2="1" href="#P" gradientTransform="matrix(-221.905,0,0,-221.905,574.05,353.435)"><stop stop-color="#029685"/><stop offset="1" stop-color="#62ed74"/></linearGradient><linearGradient id="g6" x2="1" href="#P" gradientTransform="matrix(-1.755,0,0,-0.085,333.84,101.29)"><stop stop-color="#029685"/><stop offset="1" stop-color="#62ed74"/></linearGradient><linearGradient id="g7" x2="1" href="#P" gradientTransform="matrix(-221.905,0,0,-221.905,472.075,111.395)"><stop stop-color="#029685"/><stop offset="1" stop-color="#62ed74"/></linearGradient><linearGradient id="g8" x2="1" href="#P" gradientTransform="matrix(-0.085,0,0,-1.755,110.105,240.445)"><stop stop-color="#029685"/><stop offset="1" stop-color="#62ed74"/></linearGradient><linearGradient id="g9" x2="1" href="#P" gradientTransform="matrix(-221.905,0,0,-221.905,231.12,212.285)"><stop stop-color="#029685"/><stop offset="1" stop-color="#62ed74"/></linearGradient></defs><style>.a{fill:url(#g1)}.b{fill:url(#g2)}.c{fill:url(#g3)}.d{fill:url(#g4)}.e{fill:url(#g5)}.f{fill:url(#g6)}.g{fill:url(#g7)}.h{fill:url(#g8)}.i{fill:url(#g9)}.j{fill:#231f20}</style><path class="a" d="m241.2 245.8c0-7.4 6-13.4 13.3-13.4h74.2c7.4 0 13.4 6 13.4 13.4v74.1c0 7.4-6 13.4-13.4 13.4h-74.2c-7.3 0-13.3-6-13.3-13.4z"/><path class="b" d="m250.1 464.4q-0.9 0.1-1.8 0.1 0.9-0.1 1.8-0.1z"/><path class="c" d="m332 483.4v62.9c0 10.5-8.5 19-19 19h-62.9c-10.5 0-19-8.5-19-19v-62.9q0-0.5 0-0.9-0.3-1.8-0.8-3.5c-2.2-5.1-6.5-8.7-11-11.8-1-0.5-1.9-1-3-1.4-1.1-0.4-3.2-1.2-6-1.4h-81.2c-10.5 0-19-8.5-19-19v-83.1c0-10.4 8.5-18.9 19-18.9h83.1c10.4 0 18.9 8.5 18.9 18.9v81.4c0 8.8 3.1 21 17.2 20.8q0.9 0 1.8-0.1h62.9c10.5 0 19 8.5 19 19z"/><path class="d" d="m473.2 324.4q0 0.9 0 1.7 0-0.8 0-1.7z"/><path class="e" d="m492.1 242.5h63c10.5 0 18.9 8.5 18.9 19v62.9c0 10.5-8.4 19-18.9 19h-63q-0.4 0-0.8-0.1-1.9 0.4-3.5 0.9c-5.2 2.2-8.7 6.5-11.9 11-0.5 1-1 1.9-1.3 3-0.4 1.1-1.2 3.1-1.4 5.9v81.3c0 10.5-8.5 19-19 19h-83.1c-10.5 0-19-8.5-19-19v-83.1c0-10.4 8.5-18.9 19-18.9h81.3c8.9 0 21.1-3.1 20.8-17.2q0-0.9 0-1.8v-62.9c0-10.5 8.5-19 18.9-19z"/><path class="f" d="m332.1 101.3q0.9 0 1.7-0.1-0.8 0.1-1.7 0.1z"/><path class="g" d="m250.2 82.4v-63c0-10.5 8.5-19 18.9-19h63c10.5 0 19 8.5 19 19v63q0 0.4-0.1 0.8 0.3 1.8 0.9 3.5c2.2 5.1 6.4 8.7 11 11.9 0.9 0.5 1.9 0.9 2.9 1.3 1.2 0.4 3.2 1.2 6 1.4h81.3c10.5 0 19 8.5 19 19v83.1c0 10.5-8.5 19-19 19h-83.1c-10.4 0-18.9-8.5-18.9-19v-81.3c0-8.9-3.1-21.1-17.3-20.9q-0.8 0.1-1.7 0.1h-63c-10.4 0-18.9-8.5-18.9-18.9z"/><path class="h" d="m110.1 241.3q-0.1-0.9-0.1-1.7 0.1 0.8 0.1 1.7z"/><path class="i" d="m91.1 323.2h-62.9c-10.5 0-19-8.5-19-18.9v-63c0-10.5 8.5-18.9 19-18.9h62.9q0.4 0 0.9 0 1.8-0.3 3.4-0.9c5.2-2.2 8.8-6.4 11.9-11 0.5-0.9 1-1.9 1.4-2.9 0.4-1.2 1.2-3.2 1.4-6v-81.3c0-10.5 8.5-19 19-19h83.1c10.4 0 18.9 8.5 18.9 19v83.1c0 10.5-8.5 19-18.9 19h-81.4c-8.9 0-21 3-20.8 17.2q0 0.8 0.1 1.7v63c0 10.4-8.5 18.9-19 18.9z"/><path class="j" d="m85.9 701c0 9.4-7.6 17.1-17.1 17.1h-65.6v-10.9h71.8v-15h-57.7c-9.4 0-17-7.6-17-17v-2.8c0-9.4 7.6-17 17-17h65.6v10.9h-71.7v15h57.6c9.5 0 17.1 7.6 17.1 17z"/><path fill-rule="evenodd" class="j" d="m178 701c0 9.4-7.6 17.1-17 17.1h-48.6c-9.4 0-17-7.7-17-17.1v-28.6c0-9.4 7.6-17 17-17h48.6c9.4 0 17 7.6 17 17zm-10.9 6.2v-40.9h-60.8v40.9z"/><path fill-rule="evenodd" class="j" d="m273.4 701c0 9.4-7.6 17.1-17.1 17.1h-48.5c-9.5 0-17.1-7.7-17.1-17.1v-28.6c0-9.4 7.6-17 17.1-17h48.5c9.5 0 17.1 7.6 17.1 17zm-10.9 6.2v-40.9h-60.9v40.9z"/><path class="j" d="m368.7 718.1h-65.6c-9.4 0-17-7.7-17-17.1v-28.6c0-9.4 7.6-17 17-17h65.6v10.9h-71.7v40.9h71.7v10.8z"/><path class="j" d="m389.1 645.9h-10.9v-13.7h10.9zm0 72.2h-10.9v-62.6h10.9z"/><path fill-rule="evenodd" class="j" d="m484.5 718.1h-65.6c-9.5 0-17.1-7.7-17.1-17.1v-28.6c0-9.4 7.6-17 17.1-17h48.5c9.5 0 17.1 7.6 17.1 17v19.8h-71.8v15h71.8zm-10.9-36.8v-15h-60.9v15z"/><path class="j" d="m579.8 718.1h-10.9v-51.8h-60.8v51.8h-10.9v-62.7h65.6c9.4 0 17 7.6 17 17v45.7z"/><path fill-rule="evenodd" class="j" d="m605.3 649.7q1.7 0.7 2.9 1.9 1.2 1.2 1.9 2.9 0.7 1.6 0.7 3.5 0 2-0.7 3.6-0.7 1.7-1.9 2.9-1.2 1.2-2.9 1.9-1.7 0.7-3.6 0.7-1.9 0-3.6-0.7-1.6-0.7-2.9-1.9-1.2-1.2-1.9-2.9-0.7-1.6-0.7-3.6 0-1.9 0.7-3.5 0.7-1.7 1.9-2.9 1.3-1.2 2.9-1.9 1.7-0.7 3.6-0.7 1.9 0 3.6 0.7zm-6.7 1.2q-1.4 0.6-2.4 1.6-1 1.1-1.6 2.5-0.6 1.4-0.6 3 0 1.7 0.6 3.1 0.6 1.4 1.6 2.5 1 1 2.4 1.6 1.5 0.6 3.1 0.6 1.7 0 3-0.6 1.4-0.6 2.5-1.6 1-1.1 1.6-2.5 0.6-1.4 0.6-3.1 0-1.6-0.6-3-0.6-1.4-1.6-2.5-1.1-1-2.5-1.6-1.4-0.6-3-0.6-1.6 0-3.1 0.6zm-0.2 12.4v-10.5h4q1.8 0 2.6 0.7 0.9 0.8 0.9 2.2 0 0.7-0.3 1.2-0.2 0.5-0.5 0.9-0.4 0.3-0.9 0.5-0.4 0.2-1 0.3l3.1 4.7h-1.5l-2.9-4.7h-2.2v4.7h-1.3zm4.2-5.8q0.6 0 1-0.2 0.4-0.2 0.7-0.6 0.3-0.3 0.3-1 0-0.6-0.2-0.9-0.2-0.3-0.6-0.5-0.4-0.2-0.8-0.3-0.4-0.1-0.9-0.1h-2.4v3.6h1.7q0.6 0 1.2 0z"/></svg>