<svg version="1.2" xmlns="http://www.w3.org/2000/svg" viewBox="0 0 909 216" width="909" height="216">
    <style>
        .a {
            fill: #02ed85
        }

        .b {
            fill: #f3f3f3
        }
    </style>
    <path class="a"
        d="m89.4 101.9c0-7.4 6-13.4 13.4-13.4h11.7c7.4 0 13.4 6 13.4 13.4v11.7c0 7.4-6 13.4-13.4 13.4h-11.7c-7.4 0-13.4-6-13.4-13.4z" />
    <path class="a" d="m92.8 177q-0.3 0-0.7 0 0.4 0 0.7 0z" />
    <path class="a"
        d="m124 184.2v24c0 4-3.2 7.3-7.2 7.3h-24c-4 0-7.2-3.3-7.2-7.3v-24q0-0.1 0-0.3-0.1-0.7-0.4-1.3c-0.8-2-2.4-3.4-4.2-4.6q-0.5-0.3-1.1-0.5c-0.4-0.1-1.2-0.4-2.3-0.5h-31c-4 0-7.2-3.3-7.2-7.3v-31.6c0-4 3.2-7.3 7.2-7.3h31.7c4 0 7.3 3.3 7.3 7.3v31c0 3.4 1.1 8 6.5 7.9q0.4 0 0.7 0h24c4 0 7.2 3.2 7.2 7.2z" />
    <path class="a" d="m177.9 123.6q0 0.3 0 0.7 0-0.4 0-0.7z" />
    <path class="a"
        d="m185.1 92.3h24c4 0 7.3 3.3 7.3 7.3v24c0 4-3.3 7.2-7.3 7.2h-24q-0.1 0-0.3 0-0.7 0.1-1.3 0.3c-2 0.9-3.4 2.5-4.6 4.2q-0.3 0.6-0.5 1.2c-0.1 0.4-0.4 1.2-0.5 2.2v31c0 4-3.3 7.3-7.3 7.3h-31.6c-4 0-7.3-3.3-7.3-7.3v-31.6c0-4 3.3-7.3 7.3-7.3h31c3.4 0 8-1.2 7.9-6.5q0-0.4 0-0.7v-24c0-4 3.2-7.3 7.2-7.3z" />
    <path class="a" d="m124.1 38.5q0.3 0 0.6 0-0.3 0-0.6 0z" />
    <path class="a"
        d="m92.8 31.3v-24c0-4 3.3-7.3 7.3-7.3h24c4 0 7.2 3.3 7.2 7.3v24q0 0.1 0 0.3 0.1 0.7 0.3 1.3c0.9 2 2.5 3.3 4.2 4.6q0.6 0.3 1.1 0.5c0.5 0.1 1.3 0.4 2.3 0.5h31c4 0 7.3 3.2 7.3 7.2v31.7c0 4-3.3 7.3-7.3 7.3h-31.7c-4 0-7.2-3.3-7.2-7.3v-31c0-3.4-1.2-8-6.6-7.9q-0.3 0-0.6 0h-24c-4 0-7.3-3.2-7.3-7.2z" />
    <path class="a" d="m39.4 91.9q0-0.3 0-0.7 0 0.4 0 0.7z" />
    <path class="a"
        d="m32.2 123.1h-24c-4 0-7.3-3.2-7.3-7.2v-24c0-4 3.3-7.2 7.3-7.2h24q0.1 0 0.3 0 0.7-0.1 1.3-0.4c2-0.8 3.3-2.4 4.6-4.2q0.2-0.5 0.5-1.1c0.1-0.4 0.4-1.2 0.5-2.3v-31c0-4 3.2-7.2 7.2-7.2h31.7c4 0 7.3 3.2 7.3 7.2v31.7c0 4-3.3 7.3-7.3 7.3h-31c-3.4 0-8 1.1-7.9 6.5q0 0.4 0 0.7v24c0 4-3.2 7.2-7.2 7.2z" />
    <path class="b"
        d="m383.6 133.6c0 9.4-7.6 17-17 17h-65.6v-10.8h71.7v-15h-57.6c-9.4 0-17.1-7.6-17.1-17.1v-2.7c0-9.4 7.7-17 17.1-17h65.6v10.9h-71.8v15h57.7c9.4 0 17 7.6 17 17z" />
    <path fill-rule="evenodd" class="b"
        d="m475.8 133.6c0 9.4-7.6 17-17 17h-48.6c-9.4 0-17-7.6-17-17v-28.6c0-9.4 7.6-17 17-17h48.6c9.4 0 17 7.6 17 17zm-10.9 6.1v-40.8h-60.8v40.8z" />
    <path fill-rule="evenodd" class="b"
        d="m571.1 133.6c0 9.4-7.6 17-17 17h-48.6c-9.4 0-17-7.6-17-17v-28.6c0-9.4 7.6-17 17-17h48.6c9.4 0 17 7.6 17 17zm-10.9 6.1v-40.8h-60.8v40.8z" />
    <path class="b"
        d="m666.5 150.6h-65.6c-9.5 0-17.1-7.6-17.1-17v-28.6c0-9.4 7.6-17 17.1-17h65.6v10.9h-71.8v40.8h71.8v10.9z" />
    <path class="b" d="m686.9 78.5h-10.9v-13.7h10.9zm0 72.2h-10.9v-62.6h10.9z" />
    <path fill-rule="evenodd" class="b"
        d="m782.2 150.6h-65.6c-9.4 0-17-7.6-17-17v-28.6c0-9.4 7.6-17 17-17h48.6c9.4 0 17 7.6 17 17v19.8h-71.7v14.9h71.7zm-10.9-36.7v-15h-60.8v15z" />
    <path class="b" d="m877.6 150.6h-10.9v-51.7h-60.9v51.7h-10.8v-62.6h65.6c9.4 0 17 7.6 17 17v45.6z" />
    <path fill-rule="evenodd" class="b"
        d="m903.1 82.3q1.6 0.7 2.8 1.9 1.3 1.2 2 2.9 0.7 1.6 0.7 3.5 0 2-0.7 3.6-0.7 1.7-2 2.9-1.2 1.2-2.8 1.9-1.7 0.7-3.6 0.7-1.9 0-3.6-0.7-1.7-0.7-2.9-1.9-1.2-1.2-1.9-2.9-0.7-1.6-0.7-3.6 0-1.9 0.7-3.5 0.7-1.7 1.9-2.9 1.2-1.2 2.9-1.9 1.7-0.7 3.6-0.7 1.9 0 3.6 0.7zm-6.7 1.2q-1.4 0.6-2.4 1.6-1 1.1-1.6 2.5-0.6 1.4-0.6 3 0 1.7 0.6 3.1 0.6 1.4 1.6 2.5 1 1 2.4 1.6 1.4 0.6 3.1 0.6 1.6 0 3-0.6 1.4-0.6 2.4-1.6 1.1-1.1 1.6-2.5 0.6-1.4 0.6-3.1 0-1.6-0.6-3-0.5-1.4-1.6-2.5-1-1-2.4-1.6-1.4-0.6-3-0.6-1.7 0-3.1 0.6zm-0.2 12.4v-10.5h4q1.8 0 2.6 0.7 0.8 0.8 0.8 2.2 0 0.7-0.2 1.2-0.2 0.5-0.6 0.9-0.3 0.3-0.8 0.5-0.5 0.2-1 0.3l3.1 4.7h-1.5l-3-4.7h-2.1v4.7h-1.3zm4.1-5.8q0.6 0 1.1-0.2 0.4-0.2 0.7-0.6 0.2-0.3 0.2-1 0-0.6-0.2-0.9-0.2-0.3-0.5-0.6-0.4-0.2-0.8-0.2-0.5-0.1-1-0.1h-2.3v3.6h1.7q0.6 0 1.1 0z" />
</svg>