<svg version="1.2" xmlns="http://www.w3.org/2000/svg" viewBox="0 0 909 216" width="909" height="216"><defs><linearGradient id="P" gradientUnits="userSpaceOnUse"/><linearGradient id="g1" x2="1" href="#P" gradientTransform="matrix(38.48,0,0,38.48,89.1,108.035)"><stop stop-color="#02ed85"/><stop offset="1" stop-color="#a5ed85"/></linearGradient><linearGradient id="g2" x2="1" href="#P" gradientTransform="matrix(.67,0,0,.035,91.83,177.285)"><stop stop-color="#02ed85"/><stop offset="1" stop-color="#a5ed85"/></linearGradient><linearGradient id="g3" x2="1" href="#P" gradientTransform="matrix(84.635,0,0,84.63,39.105,173.43)"><stop stop-color="#02ed85"/><stop offset="1" stop-color="#a5ed85"/></linearGradient><linearGradient id="g4" x2="1" href="#P" gradientTransform="matrix(.03,0,0,.574,177.58,124.21)"><stop stop-color="#02ed85"/><stop offset="1" stop-color="#a5ed85"/></linearGradient><linearGradient id="g5" x2="1" href="#P" gradientTransform="matrix(84.64,0,0,84.645,131.42,134.95)"><stop stop-color="#02ed85"/><stop offset="1" stop-color="#a5ed85"/></linearGradient><linearGradient id="g6" x2="1" href="#P" gradientTransform="matrix(.67,0,0,.035,123.77,38.78)"><stop stop-color="#02ed85"/><stop offset="1" stop-color="#a5ed85"/></linearGradient><linearGradient id="g7" x2="1" href="#P" gradientTransform="matrix(84.64,0,0,84.635,92.525,42.635)"><stop stop-color="#02ed85"/><stop offset="1" stop-color="#a5ed85"/></linearGradient><linearGradient id="g8" x2="1" href="#P" gradientTransform="matrix(.035,0,0,.67,39.07,91.855)"><stop stop-color="#02ed85"/><stop offset="1" stop-color="#a5ed85"/></linearGradient><linearGradient id="g9" x2="1" href="#P" gradientTransform="matrix(84.635,0,0,84.64,.625,81.115)"><stop stop-color="#02ed85"/><stop offset="1" stop-color="#a5ed85"/></linearGradient></defs><style>.a{fill:url(#g1)}.b{fill:url(#g2)}.c{fill:url(#g3)}.d{fill:url(#g4)}.e{fill:url(#g5)}.f{fill:url(#g6)}.g{fill:url(#g7)}.h{fill:url(#g8)}.i{fill:url(#g9)}.j{fill:#212334}</style><path class="a" d="m89.1 102.1c0-7.3 6-13.3 13.3-13.3h11.8c7.4 0 13.4 6 13.4 13.3v11.8c0 7.4-6 13.4-13.4 13.4h-11.8c-7.3 0-13.3-6-13.3-13.4z"/><path class="b" d="m92.5 177.3q-0.3 0-0.7 0 0.4 0 0.7 0z"/><path class="c" d="m123.7 184.5v24c0 4-3.2 7.2-7.2 7.2h-24c-4 0-7.2-3.2-7.2-7.2v-24q0-0.2 0-0.3-0.1-0.7-0.4-1.3c-0.8-2-2.4-3.4-4.2-4.6q-0.5-0.3-1.1-0.5c-0.4-0.1-1.2-0.5-2.3-0.5h-31c-4 0-7.2-3.3-7.2-7.3v-31.7c0-3.9 3.2-7.2 7.2-7.2h31.7c4 0 7.3 3.3 7.3 7.2v31.1c0 3.4 1.1 8 6.5 7.9q0.4 0 0.7 0h24c4 0 7.2 3.2 7.2 7.2z"/><path class="d" d="m177.6 123.9q0 0.3 0 0.6 0-0.3 0-0.6z"/><path class="e" d="m184.8 92.6h24c4 0 7.3 3.3 7.3 7.3v24c0 4-3.3 7.2-7.3 7.2h-24q-0.1 0-0.3 0-0.7 0.1-1.3 0.3c-2 0.9-3.4 2.5-4.6 4.2q-0.3 0.6-0.5 1.1c-0.1 0.5-0.5 1.3-0.5 2.3v31c0 4-3.3 7.3-7.3 7.3h-31.6c-4 0-7.3-3.3-7.3-7.3v-31.7c0-4 3.3-7.2 7.3-7.2h31c3.4 0 8-1.2 7.9-6.6q0-0.3 0-0.6v-24c0-4 3.2-7.3 7.2-7.3z"/><path class="f" d="m123.8 38.8q0.3 0 0.6 0-0.3 0-0.6 0z"/><path class="g" d="m92.5 31.6v-24.1c0-3.9 3.3-7.2 7.3-7.2h24c4 0 7.2 3.3 7.2 7.2v24.1q0 0.1 0 0.3 0.1 0.7 0.3 1.3c0.9 2 2.5 3.3 4.2 4.5q0.6 0.3 1.1 0.6c0.5 0.1 1.3 0.4 2.3 0.5h31c4 0 7.3 3.2 7.3 7.2v31.7c0 4-3.3 7.2-7.3 7.2h-31.7c-4 0-7.2-3.2-7.2-7.2v-31c0-3.4-1.2-8-6.6-7.9q-0.3 0-0.6 0h-24c-4 0-7.3-3.2-7.3-7.2z"/><path class="h" d="m39.1 92.2q0-0.4 0-0.7 0 0.4 0 0.7z"/><path class="i" d="m31.9 123.4h-24c-4 0-7.3-3.2-7.3-7.2v-24c0-4 3.3-7.2 7.3-7.2h24q0.1 0 0.3 0 0.7-0.2 1.3-0.4c2-0.8 3.3-2.4 4.5-4.2q0.3-0.5 0.6-1.1c0.1-0.4 0.4-1.2 0.5-2.3v-31c0-4 3.2-7.2 7.2-7.2h31.7c4 0 7.3 3.2 7.3 7.2v31.7c0 4-3.3 7.3-7.3 7.3h-31c-3.4 0-8 1.1-7.9 6.5q0 0.3 0 0.7v24c0 4-3.2 7.2-7.2 7.2z"/><path class="j" d="m383.3 133.9c0 9.4-7.6 17-17 17h-65.6v-10.9h71.7v-14.9h-57.6c-9.5 0-17.1-7.6-17.1-17.1v-2.7c0-9.4 7.6-17 17.1-17h65.6v10.9h-71.8v15h57.7c9.4 0 17 7.6 17 17z"/><path fill-rule="evenodd" class="j" d="m475.5 133.9c0 9.4-7.6 17-17 17h-48.6c-9.4 0-17-7.6-17-17v-28.6c0-9.4 7.6-17 17-17h48.6c9.4 0 17 7.6 17 17zm-10.9 6.1v-40.8h-60.9v40.8z"/><path fill-rule="evenodd" class="j" d="m570.8 133.9c0 9.4-7.6 17-17 17h-48.6c-9.4 0-17-7.6-17-17v-28.6c0-9.4 7.6-17 17-17h48.6c9.4 0 17 7.6 17 17zm-10.9 6.1v-40.8h-60.8v40.8z"/><path class="j" d="m666.2 150.9h-65.6c-9.5 0-17.1-7.6-17.1-17v-28.6c0-9.4 7.6-17 17.1-17h65.6v10.9h-71.8v40.8h71.8v10.9z"/><path class="j" d="m686.6 78.7h-10.9v-13.6h10.9zm0 72.2h-10.9v-62.6h10.9z"/><path fill-rule="evenodd" class="j" d="m781.9 150.9h-65.6c-9.4 0-17-7.6-17-17v-28.6c0-9.4 7.6-17 17-17h48.6c9.4 0 17 7.6 17 17v19.8h-71.7v14.9h71.7zm-10.9-36.7v-15h-60.8v15z"/><path class="j" d="m877.3 150.9h-10.9v-51.7h-60.9v51.7h-10.9v-62.6h65.7c9.4 0 17 7.6 17 17 0 0 0 45.6 0 45.6z"/><path fill-rule="evenodd" class="j" d="m902.8 82.5q1.6 0.7 2.8 2 1.3 1.2 2 2.9 0.7 1.6 0.6 3.5 0.1 1.9-0.6 3.6-0.7 1.6-2 2.9-1.2 1.2-2.8 1.9-1.7 0.7-3.6 0.7-2 0-3.6-0.7-1.7-0.7-2.9-1.9-1.2-1.3-1.9-2.9-0.7-1.7-0.7-3.6 0-1.9 0.7-3.5 0.7-1.7 1.9-2.9 1.2-1.3 2.9-2 1.6-0.6 3.6-0.6 1.9 0 3.6 0.6zm-6.7 1.3q-1.4 0.6-2.4 1.6-1 1.1-1.6 2.5-0.6 1.4-0.6 3 0 1.7 0.6 3.1 0.6 1.4 1.6 2.4 1 1.1 2.4 1.7 1.4 0.6 3.1 0.6 1.6 0 3-0.6 1.4-0.6 2.4-1.7 1.1-1 1.6-2.4 0.6-1.4 0.6-3.1 0-1.6-0.6-3-0.5-1.4-1.6-2.5-1-1-2.4-1.6-1.4-0.6-3-0.7-1.7 0.1-3.1 0.7zm-0.2 12.4v-10.5h4q1.8 0 2.6 0.7 0.8 0.8 0.8 2.2 0 0.7-0.2 1.2-0.2 0.5-0.6 0.8-0.3 0.4-0.8 0.6-0.5 0.2-1 0.3l3.1 4.7h-1.5l-3-4.7h-2.1v4.7h-1.3zm4.1-5.8q0.6-0.1 1.1-0.2 0.4-0.2 0.7-0.6 0.2-0.4 0.2-1 0-0.6-0.2-0.9-0.2-0.4-0.5-0.6-0.4-0.2-0.8-0.2-0.5-0.1-1-0.1h-2.3v3.6h1.7q0.6 0 1.1 0z"/></svg>