<?xml version="1.0" encoding="UTF-8"?>
<svg xmlns="http://www.w3.org/2000/svg" id="Icons" viewBox="0 0 60 60" width="512" height="512"><path d="M56,0H4A4,4,0,0,0,0,4V49a4,4,0,0,0,4,4h9.08c.494.5.981.944,1.467,1.345a2.3,2.3,0,0,0,2.424.348l3.2-1.369A19.677,19.677,0,0,0,24.7,55.2L26,58.44a2.353,2.353,0,0,0,1.945,1.465c.714.064,1.427.095,2.121.095a19.961,19.961,0,0,0,2-.095,2.354,2.354,0,0,0,1.945-1.467L35.3,55.2a19.677,19.677,0,0,0,4.528-1.88l3.2,1.368a2.3,2.3,0,0,0,2.424-.346c.533-.457,1.017-.9,1.465-1.346H56a4,4,0,0,0,4-4V4A4,4,0,0,0,56,0ZM4,2H56a2,2,0,0,1,2,2V8H2V4A2,2,0,0,1,4,2ZM44.148,52.828a.323.323,0,0,1-.334.026l-3.668-1.567a1,1,0,0,0-.909.064,17.813,17.813,0,0,1-4.923,2.043,1,1,0,0,0-.688.6l-1.478,3.7a.345.345,0,0,1-.277.222,20.44,20.44,0,0,1-3.753,0,.342.342,0,0,1-.265-.218l-1.479-3.7a1,1,0,0,0-.688-.6,17.813,17.813,0,0,1-4.923-2.043,1.006,1.006,0,0,0-.517-.144.989.989,0,0,0-.392.08l-3.67,1.567a.327.327,0,0,1-.348-.039,21.752,21.752,0,0,1-2.658-2.659.334.334,0,0,1-.027-.338l1.567-3.669a1,1,0,0,0-.064-.909,17.807,17.807,0,0,1-2.043-4.925,1,1,0,0,0-.6-.688l-3.7-1.477a.347.347,0,0,1-.222-.268v-.011a18.9,18.9,0,0,1,0-3.753.344.344,0,0,1,.218-.266l3.7-1.479a1,1,0,0,0,.6-.688,17.807,17.807,0,0,1,2.043-4.925,1,1,0,0,0,.064-.909l-1.567-3.669a.332.332,0,0,1,.038-.351,21.737,21.737,0,0,1,2.663-2.659.33.33,0,0,1,.334-.026l3.668,1.567a1,1,0,0,0,.909-.064,17.813,17.813,0,0,1,4.923-2.043,1,1,0,0,0,.688-.6l1.478-3.7a.347.347,0,0,1,.277-.222,20.267,20.267,0,0,1,3.753,0,.344.344,0,0,1,.265.218l1.479,3.7a1,1,0,0,0,.688.6,17.813,17.813,0,0,1,4.923,2.043,1,1,0,0,0,.909.064l3.67-1.567a.331.331,0,0,1,.348.039,21.682,21.682,0,0,1,2.658,2.659.334.334,0,0,1,.027.338l-1.567,3.669a1,1,0,0,0,.064.909,17.807,17.807,0,0,1,2.043,4.925,1,1,0,0,0,.6.688l3.7,1.477a.349.349,0,0,1,.223.279,18.9,18.9,0,0,1,0,3.753.344.344,0,0,1-.218.266l-3.7,1.479a1,1,0,0,0-.6.688,17.807,17.807,0,0,1-2.043,4.925,1,1,0,0,0-.064.909l1.567,3.669a.337.337,0,0,1-.038.351A21.808,21.808,0,0,1,44.148,52.828ZM56,51H48.631a2.318,2.318,0,0,0,.057-1.967l-1.369-3.206A19.71,19.71,0,0,0,49.2,41.3L52.436,40A2.353,2.353,0,0,0,53.9,38.07a20.878,20.878,0,0,0,0-4.13,2.359,2.359,0,0,0-1.467-1.946L49.2,30.7a19.71,19.71,0,0,0-1.88-4.53l1.369-3.206a2.307,2.307,0,0,0-.346-2.423,23.815,23.815,0,0,0-2.889-2.889,2.3,2.3,0,0,0-2.424-.348l-3.205,1.369A19.677,19.677,0,0,0,35.3,16.8L34,13.56A2.353,2.353,0,0,0,32.06,12.1a22.305,22.305,0,0,0-4.12,0A2.353,2.353,0,0,0,26,13.563L24.7,16.8a19.677,19.677,0,0,0-4.528,1.88l-3.2-1.368a2.3,2.3,0,0,0-2.424.345,23.692,23.692,0,0,0-2.89,2.891,2.3,2.3,0,0,0-.347,2.423l1.369,3.206A19.71,19.71,0,0,0,10.8,30.7L7.564,32A2.353,2.353,0,0,0,6.1,33.93a20.852,20.852,0,0,0,0,4.135,2.357,2.357,0,0,0,1.466,1.941L10.8,41.3a19.71,19.71,0,0,0,1.88,4.53l-1.369,3.206A2.322,2.322,0,0,0,11.369,51H4a2,2,0,0,1-2-2V10H58V49A2,2,0,0,1,56,51Z"/><path d="M30,20A16,16,0,1,0,46,36,16.019,16.019,0,0,0,30,20Zm0,30A14,14,0,1,1,44,36,14.015,14.015,0,0,1,30,50Z"/><path d="M5,6H6A1,1,0,0,0,6,4H5A1,1,0,0,0,5,6Z"/><path d="M10,6h1a1,1,0,0,0,0-2H10a1,1,0,0,0,0,2Z"/><path d="M15,6h1a1,1,0,0,0,0-2H15a1,1,0,0,0,0,2Z"/><path d="M49,6h6a1,1,0,0,0,0-2H49a1,1,0,0,0,0,2Z"/><path d="M22,31a3,3,0,0,0-3,3v6a1,1,0,0,0,2,0V38h2v2a1,1,0,0,0,2,0V34A3,3,0,0,0,22,31Zm-1,5V34a1,1,0,0,1,2,0v2Z"/><path d="M30,31H28a1,1,0,0,0-1,1v8a1,1,0,0,0,2,0V37h1a3,3,0,0,0,0-6Zm0,4H29V33h1a1,1,0,0,1,0,2Z"/><path d="M40,39H39V33h1a1,1,0,0,0,0-2H36a1,1,0,0,0,0,2h1v6H36a1,1,0,0,0,0,2h4a1,1,0,0,0,0-2Z"/></svg>
