<svg version="1.2" xmlns="http://www.w3.org/2000/svg" viewBox="0 0 217 216" width="217" height="216"><style>.a{fill:#02ed85}</style><path class="a" d="m89.4 101.9c0-7.4 6-13.4 13.4-13.4h11.7c7.4 0 13.4 6 13.4 13.4v11.7c0 7.4-6 13.4-13.4 13.4h-11.7c-7.4 0-13.4-6-13.4-13.4z"/><path class="a" d="m92.8 177q-0.3 0-0.7 0 0.4 0 0.7 0z"/><path class="a" d="m124 184.2v24c0 4-3.2 7.3-7.2 7.3h-24c-4 0-7.2-3.3-7.2-7.3v-24q0-0.1 0-0.3-0.1-0.7-0.4-1.3c-0.8-2-2.4-3.4-4.2-4.6q-0.5-0.3-1.1-0.5c-0.4-0.1-1.2-0.4-2.3-0.5h-31c-4 0-7.2-3.3-7.2-7.3v-31.6c0-4 3.2-7.3 7.2-7.3h31.7c4 0 7.3 3.3 7.3 7.3v31c0 3.4 1.1 8 6.5 7.9q0.4 0 0.7 0h24c4 0 7.2 3.2 7.2 7.2z"/><path class="a" d="m177.9 123.6q0 0.3 0 0.7 0-0.4 0-0.7z"/><path class="a" d="m185.1 92.3h24c4 0 7.3 3.3 7.3 7.3v24c0 4-3.3 7.2-7.3 7.2h-24q-0.1 0-0.3 0-0.7 0.1-1.3 0.3c-2 0.9-3.4 2.5-4.6 4.2q-0.3 0.6-0.5 1.2c-0.1 0.4-0.4 1.2-0.5 2.2v31c0 4-3.3 7.3-7.3 7.3h-31.6c-4 0-7.3-3.3-7.3-7.3v-31.6c0-4 3.3-7.3 7.3-7.3h31c3.4 0 8-1.2 7.9-6.5q0-0.4 0-0.7v-24c0-4 3.2-7.3 7.2-7.3z"/><path class="a" d="m124.1 38.5q0.3 0 0.6 0-0.3 0-0.6 0z"/><path class="a" d="m92.8 31.3v-24c0-4 3.3-7.3 7.3-7.3h24c4 0 7.2 3.3 7.2 7.3v24q0 0.1 0 0.3 0.1 0.7 0.3 1.3c0.9 2 2.5 3.3 4.2 4.6q0.6 0.3 1.1 0.5c0.5 0.1 1.3 0.4 2.3 0.5h31c4 0 7.3 3.2 7.3 7.2v31.7c0 4-3.3 7.3-7.3 7.3h-31.7c-4 0-7.2-3.3-7.2-7.3v-31c0-3.4-1.2-8-6.6-7.9q-0.3 0-0.6 0h-24c-4 0-7.3-3.2-7.3-7.2z"/><path class="a" d="m39.4 91.9q0-0.3 0-0.7 0 0.4 0 0.7z"/><path class="a" d="m32.2 123.1h-24c-4 0-7.3-3.2-7.3-7.2v-24c0-4 3.3-7.2 7.3-7.2h24q0.1 0 0.3 0 0.7-0.1 1.3-0.4c2-0.8 3.3-2.4 4.6-4.2q0.2-0.5 0.5-1.1c0.1-0.4 0.4-1.2 0.5-2.3v-31c0-4 3.2-7.2 7.2-7.2h31.7c4 0 7.3 3.2 7.3 7.2v31.7c0 4-3.3 7.3-7.3 7.3h-31c-3.4 0-8 1.1-7.9 6.5q0 0.4 0 0.7v24c0 4-3.2 7.2-7.2 7.2z"/></svg>