<!DOCTYPE svg PUBLIC "-//W3C//DTD SVG 1.1//EN" "http://www.w3.org/Graphics/SVG/1.1/DTD/svg11.dtd">
<!-- Uploaded to: SVG Repo, www.svgrepo.com, Transformed by: SVG Repo Mixer Tools -->
<svg fill="#000000" width="64px" height="64px" viewBox="-2.4 -2.4 28.80 28.80" xmlns="http://www.w3.org/2000/svg">
<g id="SVGRepo_bgCarrier" stroke-width="0">
<rect x="-2.4" y="-2.4" width="28.80" height="28.80" rx="0" fill="#c2f5d5" strokewidth="0"/>
</g>
<g id="SVGRepo_tracerCarrier" stroke-linecap="round" stroke-linejoin="round" stroke="#CCCCCC" stroke-width="0.144"/>
<g id="SVGRepo_iconCarrier">
<path d="M20,3H4A3,3,0,0,0,1,6V18a3,3,0,0,0,3,3H20a3,3,0,0,0,3-3V6A3,3,0,0,0,20,3Zm1,15a1,1,0,0,1-1,1H4a1,1,0,0,1-1-1V6A1,1,0,0,1,4,5H20a1,1,0,0,1,1,1Zm-4.293-6.707a1,1,0,1,1-1.414,1.414L13,10.414V16a1,1,0,0,1-2,0V10.414L8.707,12.707a1,1,0,1,1-1.414-1.414l4-4a1,1,0,0,1,1.414,0Z"/>
</g>
</svg>